# xmcd
#
# Track frame offsets: 
#        150
#        15696
#        30393
#        49929
#        67582
#        82326
#        96063
#        113193
#        126974
#        144852
#        162347
#        181509
#        196348
#
# Disc length: 2953 seconds
#
# Revision: 4
# Processed by: cddbd v1.5.2PL0 Copyright (c) Steve Scherf et al.
# Submitted via: ExactAudioCopy v1.0b3
#
DISCID=a10b870d
DTITLE=Backstreet Boys - This Is Us [Bonus Tracks]
DYEAR=2010
DGENRE=Pop
TTITLE0=Straight Through My Heart
TTITLE1=Bigger
TTITLE2=Bye Bye Love
TTITLE3=All Of Your Life (You Need Love)
TTITLE4=If I Knew Then
TTITLE5=This Is Us
TTITLE6=Pda
TTITLE7=Masquerade
TTITLE8=She's A Dream
TTITLE9=Shattered
TTITLE10=Undone
TTITLE11=International Luv
TTITLE12=Straight Through My Heart (Jason Nevins Mixshow Remix)
EXTD=YEAR: 2009
EXTT0=
EXTT1=
EXTT2=
EXTT3=
EXTT4=
EXTT5=
EXTT6=
EXTT7=
EXTT8=
EXTT9=
EXTT10=
EXTT11=
EXTT12=
PLAYORDER=
